<mxfile host="65bd71144e">
    <diagram id="r2JxFbRZ1PAfWFtARhM1" name="Page-1">
        <mxGraphModel dx="2282" dy="1427" grid="0" gridSize="10" guides="1" tooltips="1" connect="1" arrows="1" fold="1" page="1" pageScale="1" pageWidth="1100" pageHeight="850" math="0" shadow="0">
            <root>
                <mxCell id="0"/>
                <mxCell id="1" parent="0"/>
                <mxCell id="3" value="Midco Modem" style="rounded=0;whiteSpace=wrap;html=1;" parent="1" vertex="1">
                    <mxGeometry x="481" y="153.5" width="120" height="60" as="geometry"/>
                </mxCell>
                <mxCell id="4" value="inet" style="ellipse;shape=cloud;whiteSpace=wrap;html=1;" parent="1" vertex="1">
                    <mxGeometry x="490" y="13" width="120" height="80" as="geometry"/>
                </mxCell>
                <mxCell id="5" value="" style="endArrow=none;html=1;entryX=0.55;entryY=0.95;entryDx=0;entryDy=0;entryPerimeter=0;exitX=0.5;exitY=0;exitDx=0;exitDy=0;" parent="1" source="3" target="4" edge="1">
                    <mxGeometry width="50" height="50" relative="1" as="geometry">
                        <mxPoint x="457" y="648.5" as="sourcePoint"/>
                        <mxPoint x="547" y="135.5" as="targetPoint"/>
                    </mxGeometry>
                </mxCell>
                <mxCell id="8" value="" style="endArrow=none;html=1;exitX=1;exitY=0.5;exitDx=0;exitDy=0;entryX=0;entryY=0.5;entryDx=0;entryDy=0;" parent="1" source="28" target="3" edge="1">
                    <mxGeometry width="50" height="50" relative="1" as="geometry">
                        <mxPoint x="406" y="209.5" as="sourcePoint"/>
                        <mxPoint x="479" y="181.5" as="targetPoint"/>
                    </mxGeometry>
                </mxCell>
                <mxCell id="10" value="" style="endArrow=none;html=1;entryX=0.5;entryY=1;entryDx=0;entryDy=0;exitX=0.5;exitY=0;exitDx=0;exitDy=0;" parent="1" source="9" target="3" edge="1">
                    <mxGeometry width="50" height="50" relative="1" as="geometry">
                        <mxPoint x="457" y="648.5" as="sourcePoint"/>
                        <mxPoint x="507" y="598.5" as="targetPoint"/>
                    </mxGeometry>
                </mxCell>
                <mxCell id="28" value="Google Home" style="ellipse;whiteSpace=wrap;html=1;aspect=fixed;" parent="1" vertex="1">
                    <mxGeometry x="325" y="135" width="97" height="97" as="geometry"/>
                </mxCell>
                <mxCell id="35" value="" style="group" parent="1" vertex="1" connectable="0">
                    <mxGeometry x="113" y="260.5" width="630" height="168" as="geometry"/>
                </mxCell>
                <mxCell id="9" value="opnsense" style="shape=parallelogram;perimeter=parallelogramPerimeter;whiteSpace=wrap;html=1;fixedSize=1;container=0;" parent="35" vertex="1">
                    <mxGeometry x="368" y="9" width="120" height="60" as="geometry"/>
                </mxCell>
                <mxCell id="12" value="" style="endArrow=none;html=1;entryX=0;entryY=0.5;entryDx=0;entryDy=0;exitX=1;exitY=0.5;exitDx=0;exitDy=0;" parent="35" source="13" target="9" edge="1">
                    <mxGeometry width="50" height="50" relative="1" as="geometry">
                        <mxPoint x="370" y="96" as="sourcePoint"/>
                        <mxPoint x="394" y="338" as="targetPoint"/>
                    </mxGeometry>
                </mxCell>
                <mxCell id="29" value="seedbox (pve 4 or hv1?)" style="rounded=0;whiteSpace=wrap;html=1;container=0;" parent="35" vertex="1">
                    <mxGeometry x="510" y="99" width="120" height="60" as="geometry"/>
                </mxCell>
                <mxCell id="30" value="" style="endArrow=none;html=1;entryX=1;entryY=0.5;entryDx=0;entryDy=0;exitX=0;exitY=0;exitDx=0;exitDy=0;" parent="35" source="29" target="9" edge="1">
                    <mxGeometry width="50" height="50" relative="1" as="geometry">
                        <mxPoint x="344" y="288" as="sourcePoint"/>
                        <mxPoint x="394" y="238" as="targetPoint"/>
                    </mxGeometry>
                </mxCell>
                <mxCell id="31" value="" style="endArrow=none;html=1;entryX=0;entryY=0.5;entryDx=0;entryDy=0;exitX=1;exitY=0.5;exitDx=0;exitDy=0;" parent="35" source="17" target="29" edge="1">
                    <mxGeometry width="50" height="50" relative="1" as="geometry">
                        <mxPoint x="344" y="288" as="sourcePoint"/>
                        <mxPoint x="394" y="238" as="targetPoint"/>
                    </mxGeometry>
                </mxCell>
                <mxCell id="32" value="NFS?" style="text;html=1;strokeColor=none;fillColor=none;align=center;verticalAlign=middle;whiteSpace=wrap;rounded=0;container=0;" parent="35" vertex="1">
                    <mxGeometry x="378" y="106" width="60" height="30" as="geometry"/>
                </mxCell>
                <mxCell id="34" value="Wi-Fi or 2 NICs?" style="text;html=1;strokeColor=none;fillColor=none;align=center;verticalAlign=middle;whiteSpace=wrap;rounded=0;container=0;" parent="35" vertex="1">
                    <mxGeometry x="493" y="52.5" width="60" height="30" as="geometry"/>
                </mxCell>
                <mxCell id="13" value="sg-300-8p" style="rounded=0;whiteSpace=wrap;html=1;container=0;" parent="35" vertex="1">
                    <mxGeometry x="106" y="7" width="120" height="60" as="geometry"/>
                </mxCell>
                <mxCell id="14" value="" style="endArrow=none;html=1;entryX=0;entryY=0.5;entryDx=0;entryDy=0;exitX=1;exitY=0.5;exitDx=0;exitDy=0;" parent="35" source="16" target="13" edge="1">
                    <mxGeometry width="50" height="50" relative="1" as="geometry">
                        <mxPoint x="12" y="37" as="sourcePoint"/>
                        <mxPoint x="221" y="235" as="targetPoint"/>
                    </mxGeometry>
                </mxCell>
                <mxCell id="16" value="pve 1-4 &amp;amp; hv1" style="whiteSpace=wrap;html=1;aspect=fixed;container=0;" parent="35" vertex="1">
                    <mxGeometry width="67" height="67" as="geometry"/>
                </mxCell>
                <mxCell id="17" value="truenas" style="whiteSpace=wrap;html=1;aspect=fixed;container=0;" parent="35" vertex="1">
                    <mxGeometry x="226" y="88" width="80" height="80" as="geometry"/>
                </mxCell>
                <mxCell id="18" value="" style="endArrow=none;html=1;entryX=0.75;entryY=1;entryDx=0;entryDy=0;exitX=0.5;exitY=0;exitDx=0;exitDy=0;" parent="35" source="17" target="13" edge="1">
                    <mxGeometry width="50" height="50" relative="1" as="geometry">
                        <mxPoint x="284" y="140" as="sourcePoint"/>
                        <mxPoint x="221" y="235" as="targetPoint"/>
                    </mxGeometry>
                </mxCell>
                <mxCell id="20" value="PC-MAYJ" style="whiteSpace=wrap;html=1;aspect=fixed;container=0;" parent="35" vertex="1">
                    <mxGeometry x="126" y="88" width="80" height="80" as="geometry"/>
                </mxCell>
                <mxCell id="21" value="" style="endArrow=none;html=1;entryX=0.5;entryY=1;entryDx=0;entryDy=0;exitX=0.5;exitY=0;exitDx=0;exitDy=0;" parent="35" source="20" target="13" edge="1">
                    <mxGeometry width="50" height="50" relative="1" as="geometry">
                        <mxPoint x="171" y="185" as="sourcePoint"/>
                        <mxPoint x="221" y="135" as="targetPoint"/>
                    </mxGeometry>
                </mxCell>
                <mxCell id="24" value="unifi ap" style="ellipse;whiteSpace=wrap;html=1;container=0;" parent="35" vertex="1">
                    <mxGeometry x="9" y="84" width="99" height="74" as="geometry"/>
                </mxCell>
                <mxCell id="26" value="" style="endArrow=none;html=1;entryX=0.25;entryY=1;entryDx=0;entryDy=0;exitX=1;exitY=0;exitDx=0;exitDy=0;" parent="35" source="24" target="13" edge="1">
                    <mxGeometry width="50" height="50" relative="1" as="geometry">
                        <mxPoint x="171" y="185" as="sourcePoint"/>
                        <mxPoint x="221" y="135" as="targetPoint"/>
                    </mxGeometry>
                </mxCell>
            </root>
        </mxGraphModel>
    </diagram>
</mxfile>